<?xml version="1.0" encoding="UTF-8" standalone="no"?>
<!DOCTYPE svg PUBLIC "-//W3C//DTD SVG 1.1//EN"
 "http://www.w3.org/Graphics/SVG/1.1/DTD/svg11.dtd">
<!-- Generated by graphviz version 2.47.0 (20210316.0004)
 -->
<!-- Title: dbml Pages: 1 -->
<svg width="1041pt" height="777pt"
 viewBox="0.00 0.00 1041.02 777.33" xmlns="http://www.w3.org/2000/svg" xmlns:xlink="http://www.w3.org/1999/xlink">
<g id="graph0" class="graph" transform="scale(1 1) rotate(0) translate(4 773.33)">
<title>dbml</title>
<!-- blame -->
<g id="blame" class="node">
<title>blame</title>
<ellipse fill="none" stroke="black" stroke-width="0" cx="252.44" cy="-384.67" rx="252.37" ry="384.83"/>
<polygon fill="#1d71b8" stroke="transparent" points="76.44,-594.67 76.44,-654.67 429.44,-654.67 429.44,-594.67 76.44,-594.67"/>
<polygon fill="none" stroke="#29235c" points="76.44,-594.67 76.44,-654.67 429.44,-654.67 429.44,-594.67 76.44,-594.67"/>
<text text-anchor="start" x="147.13" y="-615.87" font-family="Helvetica,sans-Serif" font-weight="bold" font-size="32.00" fill="#ffffff"> &#160;&#160;&#160;&#160;&#160;&#160;blame &#160;&#160;&#160;&#160;&#160;&#160;</text>
<polygon fill="#e7e2dd" stroke="transparent" points="76.44,-534.67 76.44,-594.67 429.44,-594.67 429.44,-534.67 76.44,-534.67"/>
<polygon fill="none" stroke="#29235c" points="76.44,-534.67 76.44,-594.67 429.44,-594.67 429.44,-534.67 76.44,-534.67"/>
<text text-anchor="start" x="87.44" y="-555.87" font-family="Helvetica,sans-Serif" font-weight="bold" font-size="32.00" fill="#29235c">id</text>
<text text-anchor="start" x="112.33" y="-555.87" font-family="Helvetica,sans-Serif" font-size="32.00" fill="#29235c"> &#160;&#160;&#160;</text>
<text text-anchor="start" x="281.54" y="-555.87" font-family="Helvetica,sans-Serif" font-style="italic" font-size="32.00" fill="#29235c">integer</text>
<text text-anchor="start" x="379.35" y="-555.87" font-family="Helvetica,sans-Serif" font-size="32.00" fill="#29235c"> </text>
<text text-anchor="start" x="388.24" y="-555.87" font-family="Helvetica,sans-Serif" font-weight="bold" font-size="32.00" fill="#29235c">(!)</text>
<polygon fill="#e7e2dd" stroke="transparent" points="76.44,-474.67 76.44,-534.67 429.44,-534.67 429.44,-474.67 76.44,-474.67"/>
<polygon fill="none" stroke="#29235c" points="76.44,-474.67 76.44,-534.67 429.44,-534.67 429.44,-474.67 76.44,-474.67"/>
<text text-anchor="start" x="87.44" y="-494.87" font-family="Helvetica,sans-Serif" font-size="32.00" fill="#29235c">reason &#160;&#160;&#160;</text>
<text text-anchor="start" x="327.77" y="-495.87" font-family="Helvetica,sans-Serif" font-style="italic" font-size="32.00" fill="#29235c">text</text>
<text text-anchor="start" x="379.35" y="-495.87" font-family="Helvetica,sans-Serif" font-size="32.00" fill="#29235c"> </text>
<text text-anchor="start" x="388.24" y="-495.87" font-family="Helvetica,sans-Serif" font-weight="bold" font-size="32.00" fill="#29235c">(!)</text>
<polygon fill="#e7e2dd" stroke="transparent" points="76.44,-414.67 76.44,-474.67 429.44,-474.67 429.44,-414.67 76.44,-414.67"/>
<polygon fill="none" stroke="#29235c" points="76.44,-414.67 76.44,-474.67 429.44,-474.67 429.44,-414.67 76.44,-414.67"/>
<text text-anchor="start" x="87.44" y="-434.87" font-family="Helvetica,sans-Serif" font-size="32.00" fill="#29235c">kind &#160;&#160;&#160;</text>
<text text-anchor="start" x="327.77" y="-435.87" font-family="Helvetica,sans-Serif" font-style="italic" font-size="32.00" fill="#29235c">text</text>
<text text-anchor="start" x="379.35" y="-435.87" font-family="Helvetica,sans-Serif" font-size="32.00" fill="#29235c"> </text>
<text text-anchor="start" x="388.24" y="-435.87" font-family="Helvetica,sans-Serif" font-weight="bold" font-size="32.00" fill="#29235c">(!)</text>
<polygon fill="#e7e2dd" stroke="transparent" points="76.44,-354.67 76.44,-414.67 429.44,-414.67 429.44,-354.67 76.44,-354.67"/>
<polygon fill="none" stroke="#29235c" points="76.44,-354.67 76.44,-414.67 429.44,-414.67 429.44,-354.67 76.44,-354.67"/>
<text text-anchor="start" x="87.44" y="-374.87" font-family="Helvetica,sans-Serif" font-size="32.00" fill="#29235c">created_at &#160;&#160;&#160;</text>
<text text-anchor="start" x="281.54" y="-375.87" font-family="Helvetica,sans-Serif" font-style="italic" font-size="32.00" fill="#29235c">integer</text>
<text text-anchor="start" x="379.35" y="-375.87" font-family="Helvetica,sans-Serif" font-size="32.00" fill="#29235c"> </text>
<text text-anchor="start" x="388.24" y="-375.87" font-family="Helvetica,sans-Serif" font-weight="bold" font-size="32.00" fill="#29235c">(!)</text>
<polygon fill="#e7e2dd" stroke="transparent" points="76.44,-294.67 76.44,-354.67 429.44,-354.67 429.44,-294.67 76.44,-294.67"/>
<polygon fill="none" stroke="#29235c" points="76.44,-294.67 76.44,-354.67 429.44,-354.67 429.44,-294.67 76.44,-294.67"/>
<text text-anchor="start" x="87.1" y="-314.87" font-family="Helvetica,sans-Serif" font-size="32.00" fill="#29235c">updated_at &#160;&#160;&#160;</text>
<text text-anchor="start" x="281.99" y="-315.87" font-family="Helvetica,sans-Serif" font-style="italic" font-size="32.00" fill="#29235c">integer</text>
<text text-anchor="start" x="379.79" y="-315.87" font-family="Helvetica,sans-Serif" font-size="32.00" fill="#29235c"> </text>
<text text-anchor="start" x="388.69" y="-315.87" font-family="Helvetica,sans-Serif" font-weight="bold" font-size="32.00" fill="#29235c">(!)</text>
<polygon fill="#e7e2dd" stroke="transparent" points="76.44,-234.67 76.44,-294.67 429.44,-294.67 429.44,-234.67 76.44,-234.67"/>
<polygon fill="none" stroke="#29235c" points="76.44,-234.67 76.44,-294.67 429.44,-294.67 429.44,-234.67 76.44,-234.67"/>
<text text-anchor="start" x="87.44" y="-254.87" font-family="Helvetica,sans-Serif" font-size="32.00" fill="#29235c">expires_at &#160;&#160;&#160;</text>
<text text-anchor="start" x="320.64" y="-255.87" font-family="Helvetica,sans-Serif" font-style="italic" font-size="32.00" fill="#29235c">integer</text>
<polygon fill="#e7e2dd" stroke="transparent" points="76.44,-174.67 76.44,-234.67 429.44,-234.67 429.44,-174.67 76.44,-174.67"/>
<polygon fill="none" stroke="#29235c" points="76.44,-174.67 76.44,-234.67 429.44,-234.67 429.44,-174.67 76.44,-174.67"/>
<text text-anchor="start" x="87.44" y="-194.87" font-family="Helvetica,sans-Serif" font-size="32.00" fill="#29235c">blamee_id &#160;&#160;&#160;</text>
<text text-anchor="start" x="327.77" y="-195.87" font-family="Helvetica,sans-Serif" font-style="italic" font-size="32.00" fill="#29235c">text</text>
<text text-anchor="start" x="379.35" y="-195.87" font-family="Helvetica,sans-Serif" font-size="32.00" fill="#29235c"> </text>
<text text-anchor="start" x="388.24" y="-195.87" font-family="Helvetica,sans-Serif" font-weight="bold" font-size="32.00" fill="#29235c">(!)</text>
<polygon fill="#e7e2dd" stroke="transparent" points="76.44,-114.67 76.44,-174.67 429.44,-174.67 429.44,-114.67 76.44,-114.67"/>
<polygon fill="none" stroke="#29235c" points="76.44,-114.67 76.44,-174.67 429.44,-174.67 429.44,-114.67 76.44,-114.67"/>
<text text-anchor="start" x="87.44" y="-134.87" font-family="Helvetica,sans-Serif" font-size="32.00" fill="#29235c">blamer_id &#160;&#160;&#160;</text>
<text text-anchor="start" x="327.77" y="-135.87" font-family="Helvetica,sans-Serif" font-style="italic" font-size="32.00" fill="#29235c">text</text>
<text text-anchor="start" x="379.35" y="-135.87" font-family="Helvetica,sans-Serif" font-size="32.00" fill="#29235c"> </text>
<text text-anchor="start" x="388.24" y="-135.87" font-family="Helvetica,sans-Serif" font-weight="bold" font-size="32.00" fill="#29235c">(!)</text>
<polygon fill="none" stroke="#29235c" stroke-width="2" points="74.94,-113.67 74.94,-655.67 429.94,-655.67 429.94,-113.67 74.94,-113.67"/>
</g>
<!-- user -->
<g id="user" class="node">
<title>user</title>
<ellipse fill="none" stroke="black" stroke-width="0" cx="786.95" cy="-564.67" rx="246.15" ry="130.22"/>
<polygon fill="#1d71b8" stroke="transparent" points="614.95,-594.67 614.95,-654.67 958.95,-654.67 958.95,-594.67 614.95,-594.67"/>
<polygon fill="none" stroke="#29235c" points="614.95,-594.67 614.95,-654.67 958.95,-654.67 958.95,-594.67 614.95,-594.67"/>
<text text-anchor="start" x="693.58" y="-615.87" font-family="Helvetica,sans-Serif" font-weight="bold" font-size="32.00" fill="#ffffff"> &#160;&#160;&#160;&#160;&#160;&#160;user &#160;&#160;&#160;&#160;&#160;&#160;</text>
<polygon fill="#e7e2dd" stroke="transparent" points="614.95,-534.67 614.95,-594.67 958.95,-594.67 958.95,-534.67 614.95,-534.67"/>
<polygon fill="none" stroke="#29235c" points="614.95,-534.67 614.95,-594.67 958.95,-594.67 958.95,-534.67 614.95,-534.67"/>
<text text-anchor="start" x="625.95" y="-555.87" font-family="Helvetica,sans-Serif" font-weight="bold" font-size="32.00" fill="#29235c">id</text>
<text text-anchor="start" x="650.84" y="-555.87" font-family="Helvetica,sans-Serif" font-size="32.00" fill="#29235c"> &#160;&#160;&#160;</text>
<text text-anchor="start" x="857.28" y="-555.87" font-family="Helvetica,sans-Serif" font-style="italic" font-size="32.00" fill="#29235c">text</text>
<text text-anchor="start" x="908.86" y="-555.87" font-family="Helvetica,sans-Serif" font-size="32.00" fill="#29235c"> </text>
<text text-anchor="start" x="917.75" y="-555.87" font-family="Helvetica,sans-Serif" font-weight="bold" font-size="32.00" fill="#29235c">(!)</text>
<polygon fill="#e7e2dd" stroke="transparent" points="614.95,-474.67 614.95,-534.67 958.95,-534.67 958.95,-474.67 614.95,-474.67"/>
<polygon fill="none" stroke="#29235c" points="614.95,-474.67 614.95,-534.67 958.95,-534.67 958.95,-474.67 614.95,-474.67"/>
<text text-anchor="start" x="625.47" y="-494.87" font-family="Helvetica,sans-Serif" font-size="32.00" fill="#29235c">display_name &#160;&#160;&#160;</text>
<text text-anchor="start" x="857.61" y="-495.87" font-family="Helvetica,sans-Serif" font-style="italic" font-size="32.00" fill="#29235c">text</text>
<text text-anchor="start" x="909.19" y="-495.87" font-family="Helvetica,sans-Serif" font-size="32.00" fill="#29235c"> </text>
<text text-anchor="start" x="918.08" y="-495.87" font-family="Helvetica,sans-Serif" font-weight="bold" font-size="32.00" fill="#29235c">(!)</text>
<polygon fill="none" stroke="#29235c" stroke-width="2" points="613.95,-473.67 613.95,-655.67 959.95,-655.67 959.95,-473.67 613.95,-473.67"/>
</g>
<!-- blame&#45;&gt;user -->
<!-- blame&#45;&gt;user -->
<g id="edge2" class="edge">
<title>blame:e&#45;&gt;user:w</title>
<path fill="none" stroke="#29235c" stroke-width="3" d="M430.44,-144.67C630.66,-144.67 417.77,-550.43 603.87,-564.3"/>
<polygon fill="#29235c" stroke="#29235c" stroke-width="3" points="603.83,-567.8 613.95,-564.67 604.08,-560.81 603.83,-567.8"/>
<text text-anchor="middle" x="605.05" y="-535.87" font-family="Helvetica,sans-Serif" font-size="32.00" fill="#29235c">1</text>
<text text-anchor="middle" x="436.66" y="-115.87" font-family="Helvetica,sans-Serif" font-size="32.00" fill="#29235c">*</text>
</g>
<!-- blame&#45;&gt;user -->
<!-- blame&#45;&gt;user -->
<g id="edge4" class="edge">
<title>blame:e&#45;&gt;user:w</title>
<path fill="none" stroke="#29235c" stroke-width="3" d="M430.44,-204.67C606.52,-204.67 441.09,-550.74 603.83,-564.26"/>
<polygon fill="#29235c" stroke="#29235c" stroke-width="3" points="603.81,-567.76 613.95,-564.67 604.1,-560.77 603.81,-567.76"/>
<text text-anchor="middle" x="605.05" y="-574.27" font-family="Helvetica,sans-Serif" font-size="32.00" fill="#29235c">1</text>
<text text-anchor="middle" x="436.66" y="-175.87" font-family="Helvetica,sans-Serif" font-size="32.00" fill="#29235c">*</text>
</g>
</g>
</svg>
